<?xml version="1.0" encoding="UTF-8" standalone="no"?>
<!DOCTYPE svg >
<svg width="100%" height="100%" viewBox="0 0 397 376" version="1.1" xmlns="http://www.w3.org/2000/svg" xmlns:xlink="http://www.w3.org/1999/xlink" xml:space="preserve" xmlns:serif="http://www.serif.com/" style="fill-rule:evenodd;clip-rule:evenodd;stroke-linejoin:round;stroke-miterlimit:2;">
    <g transform="matrix(1,0,0,1,-548.479,-352.414)">
        <g transform="matrix(2.68712,0,0,2.68712,-2273.79,-1874.08)">
            <g transform="matrix(1.55441,0,0,1.55441,-256.094,-603.493)">
                <g transform="matrix(1.69449,0,0,1.69449,-1827.47,-202.805)">
                    <path d="M1591.61,713.843L1591.61,665.939C1591.61,665.939 1596.16,663.387 1596.16,663.387L1596.16,716.395L1591.61,713.843Z" style="fill:rgb(24,156,167);"/>
                </g>
                <g transform="matrix(1.69449,0,0,1.69449,-1827.47,-202.805)">
                    <path d="M1574.47,704.224L1574.47,675.558C1574.47,675.558 1579.01,673.007 1579.01,673.007L1579.01,706.776L1574.47,704.224Z" style="fill:rgb(24,156,167);"/>
                </g>
                <g transform="matrix(1.69449,0,0,1.69449,-1827.47,-202.805)">
                    <path d="M1608.76,716.395L1608.76,663.387L1613.31,665.939C1613.31,665.939 1613.31,713.843 1613.31,713.843C1613.31,713.843 1608.76,716.395 1608.76,716.395Z" style="fill:rgb(24,156,167);"/>
                </g>
                <g transform="matrix(1.69449,0,0,1.69449,-1827.47,-202.805)">
                    <path d="M1625.9,706.776L1625.9,673.007L1630.45,675.558C1630.45,675.558 1630.45,704.224 1630.45,704.224C1630.45,704.224 1625.9,706.776 1625.9,706.776Z" style="fill:rgb(24,156,167);"/>
                </g>
            </g>
        </g>
    </g>
</svg>
